<svg width="200" height="200" viewBox="0 0 200 200" fill="none" xmlns="http://www.w3.org/2000/svg">
<mask id="mask0" mask-type="alpha" maskUnits="userSpaceOnUse" x="0" y="0" width="200" height="200">
<rect width="200" height="200" fill="#C4C4C4"/>
</mask>
<g mask="url(#mask0)">
<rect x="-5" y="-5" width="215" height="205" fill="#3C7288"/>
<ellipse cx="68.3393" cy="110.894" rx="12" ry="23" transform="rotate(-24.0776 68.3393 110.894)" fill="#80CCB1"/>
<ellipse rx="12" ry="23" transform="matrix(-0.912994 -0.407973 -0.407973 0.912994 136.34 110.894)" fill="#80CCB1"/>
<rect x="53" y="127" width="30" height="7" rx="3.5" fill="#80CCB1"/>
<rect x="122" y="127" width="30" height="7" rx="3.5" fill="#80CCB1"/>
<rect x="70" y="69" width="65" height="65" rx="4" fill="#99E6CB"/>
<rect x="77" y="94" width="51" height="32" rx="4" fill="white" fill-opacity="0.56" style="mix-blend-mode:luminosity"/>
<circle cx="81.5" cy="70.5" r="11.5" fill="#99E6CB"/>
<circle cx="123.5" cy="70.5" r="11.5" fill="#99E6CB"/>
<circle cx="123.5" cy="70.5" r="6.5" fill="white"/>
<circle cx="123.5" cy="70.5" r="4.5" fill="black"/>
<circle cx="81.5" cy="70.5" r="6.5" fill="white"/>
<circle cx="81.5" cy="70.5" r="4.5" fill="black"/>
</g>
</svg>
