<svg width="200" height="200" viewBox="0 0 200 200" fill="none" xmlns="http://www.w3.org/2000/svg">
<rect width="200" height="200" fill="#FDA5A5"/>
<g clip-path="url(#clip0)">
<path d="M21.4004 78.4999L41.8004 76.3999L62.1004 78.4999V116L41.8004 128L21.4004 116V78.4999Z" stroke="white" stroke-width="2.791"/>
<path d="M21.6992 95.9001L41.0992 84.6001L61.9992 95.9001V97.1001L41.7992 109L21.6992 97.1001V95.9001V95.9001Z" stroke="white" stroke-width="2.057"/>
<path d="M41.7992 107.8L44.6992 105.9L41.7992 104V102.1L46.4992 104.9L47.9992 104L41.7992 100.3V98.0999L49.6992 102.9L51.2992 102L41.7992 96.0999V93.9999L54.6992 101.9V110.3L41.7992 118.1L28.6992 110.5V108.3L41.7992 116.2V114.1L28.6992 106.4V104.5L41.7992 112.1V107.8V107.8ZM86.6992 114.9C86.9992 114.9 87.2992 114.8 87.4992 114.7V116.7C86.8992 116.9 86.2992 117 85.6992 117C84.5992 117 83.6992 116.6 83.1992 115.5C81.9992 116.5 80.4992 117.1 78.4992 117.1C76.1992 117.1 74.0992 115.9 74.0992 113.3C74.0992 110.1 77.0992 109.1 79.5992 109.1C80.6992 109.1 81.7992 109.2 82.7992 109.5V109.1C82.7992 107.5 81.6992 106.5 79.4992 106.5C77.9992 106.5 76.3992 106.8 74.9992 107.5V105C76.4992 104.5 78.0992 104.2 79.7992 104.2C83.2992 104.2 85.5992 105.9 85.5992 109.6V114C85.6992 114.7 86.1992 114.9 86.6992 114.9ZM76.9992 113.2C76.9992 114.4 78.0992 115 79.2992 115C80.5992 115 81.8992 114.5 82.8992 113.5V111.4C81.9992 111.2 81.0992 111.1 80.1992 111.1C78.6992 111.2 76.9992 111.7 76.9992 113.2V113.2ZM95.4992 104.1C96.8992 104.1 98.1992 104.4 99.2992 105.1V107.6C98.3992 107 97.0992 106.6 95.8992 106.6C93.6992 106.6 91.4992 107.8 91.4992 110.7C91.4992 113.5 93.6992 114.8 95.8992 114.8C97.1992 114.8 98.3992 114.5 99.4992 113.8V116.4C98.2992 117 96.9992 117.3 95.3992 117.3C92.0992 117.3 88.6992 115.3 88.6992 110.8C88.5992 106.1 92.1992 104.1 95.4992 104.1V104.1ZM113.599 114.9C113.899 114.9 114.199 114.8 114.399 114.7V116.7C113.799 116.9 113.199 117 112.599 117C111.499 117 110.599 116.6 110.099 115.5C108.899 116.5 107.399 117.1 105.399 117.1C103.099 117.1 100.999 115.9 100.999 113.3C100.999 110.1 103.999 109.1 106.499 109.1C107.599 109.1 108.699 109.2 109.699 109.5V109.1C109.699 107.5 108.599 106.5 106.399 106.5C104.899 106.5 103.299 106.8 101.899 107.5V105C103.399 104.5 104.999 104.2 106.699 104.2C110.199 104.2 112.499 105.9 112.499 109.6V114C112.699 114.7 113.099 114.9 113.599 114.9V114.9ZM103.999 113.2C103.999 114.4 105.099 115 106.299 115C107.599 115 108.899 114.5 109.899 113.5V111.4C108.999 111.2 108.099 111.1 107.199 111.1C105.699 111.2 103.999 111.7 103.999 113.2V113.2ZM128.999 98.6999V116.8H126.499V114.8C125.499 116 124.099 117.1 121.699 117.1C117.899 117.1 115.499 114.1 115.499 110.5C115.499 106.9 117.899 103.9 121.699 103.9C123.899 103.9 125.299 104.9 126.199 105.8V98.4999H128.999V98.6999V98.6999ZM122.299 106.5C120.099 106.5 118.399 108.2 118.399 110.6C118.399 113 119.999 114.7 122.299 114.7C123.999 114.7 125.599 113.7 126.299 112.1V109.1C125.599 107.5 123.999 106.5 122.299 106.5V106.5ZM137.999 104.1C142.899 104.1 144.699 108.1 143.899 111.7H134.499C134.799 113.9 136.999 114.9 139.299 114.9C140.699 114.9 141.999 114.6 143.199 114V116.4C142.099 116.9 140.499 117.3 138.699 117.3C134.899 117.3 131.599 115.1 131.599 110.7C131.699 106.1 135.099 104.1 137.999 104.1V104.1ZM138.199 106.4C136.299 106.4 134.699 107.5 134.499 109.6H141.399C141.499 108.5 140.899 106.4 138.199 106.4ZM146.699 116.9V104.4H149.199V106C149.899 105.2 151.299 104.1 153.299 104.1C155.199 104.1 156.499 104.9 157.199 106.1C158.299 105 159.699 104.1 161.599 104.1C164.899 104.1 166.299 106.5 166.299 109.1V116.9H163.499V109.2C163.499 107.6 162.499 106.6 160.999 106.6C159.599 106.6 158.599 107.5 157.899 108.3C157.899 108.6 157.999 108.9 157.999 109.2V117H155.199V109.3C155.199 107.7 154.199 106.7 152.699 106.7C151.199 106.7 150.099 107.8 149.399 108.6V117L146.699 116.9V116.9ZM178.499 104.4H181.399L175.599 118.5C174.299 121.7 172.499 122.8 170.599 122.8C169.999 122.8 169.499 122.7 168.999 122.6V120.2C169.399 120.3 169.799 120.4 170.299 120.4C171.599 120.4 172.699 119.4 173.399 117.5L173.699 116.9L167.799 104.4H170.799L174.999 113.8L178.499 104.4ZM77.8992 76.8999V83.9999C78.9992 82.8999 80.3992 82.2999 81.8992 82.2999C84.9992 82.2999 86.9992 84.3999 86.9992 87.3999V95.0999H84.1992V87.7999C84.1992 85.7999 82.9992 84.7999 81.2992 84.7999C79.6992 84.7999 78.4992 85.8999 77.7992 86.8999V95.0999H74.9992V76.8999H77.8992ZM94.5992 78.1999V82.5999H99.0992V84.9999H94.5992V90.6999C94.5992 92.2999 95.3992 92.8999 96.9992 92.8999C97.8992 92.8999 98.6992 92.6999 99.4992 92.3999V94.7999C98.3992 95.1999 97.2992 95.3999 96.1992 95.2999C93.7992 95.2999 91.8992 94.0999 91.8992 91.1999V84.9999H89.6992V82.5999H91.8992V78.8999L94.5992 78.1999V78.1999ZM102.599 95.0999V82.5999H105.099V84.1999C105.799 83.4999 107.199 82.2999 109.199 82.2999C111.099 82.2999 112.399 83.0999 113.099 84.2999C114.199 83.1999 115.599 82.2999 117.499 82.2999C120.799 82.2999 122.199 84.6999 122.199 87.2999V95.0999H119.399V87.3999C119.399 85.7999 118.399 84.7999 116.899 84.7999C115.499 84.7999 114.499 85.6999 113.799 86.4999C113.799 86.7999 113.899 87.0999 113.899 87.3999V95.1999H111.099V87.4999C111.099 85.8999 110.099 84.8999 108.599 84.8999C107.099 84.8999 105.999 85.9999 105.299 86.7999V95.1999L102.599 95.0999V95.0999ZM126.299 76.8999H129.099V94.9999H126.299V76.8999V76.8999Z" fill="white"/>
</g>
<defs>
<clipPath id="clip0">
<rect width="161" height="55" fill="white" transform="translate(20 75)"/>
</clipPath>
</defs>
</svg>
