<svg width="200" height="200" viewBox="0 0 200 200" fill="none" xmlns="http://www.w3.org/2000/svg">
<mask id="mask0" mask-type="alpha" maskUnits="userSpaceOnUse" x="0" y="0" width="200" height="200">
<rect width="200" height="200" fill="#C4C4C4"/>
</mask>
<g mask="url(#mask0)">
<rect width="200" height="200" fill="#FFCB2E"/>
<ellipse cx="100" cy="110" rx="58" ry="51" fill="black" fill-opacity="0.15"/>
<path d="M40.0596 97.5751C41.637 69.9777 66.8753 39.2264 100.789 40.0149C130.759 40.0149 161.519 66.8239 159.942 97.5751C158.364 128.326 133.126 152.77 100.789 151.981C68.4527 151.193 38.4822 125.172 40.0596 97.5751Z" fill="white"/>
<ellipse cx="102.5" cy="96" rx="35.5" ry="30" fill="black" fill-opacity="0.15"/>
<ellipse cx="100" cy="90" rx="35" ry="30" fill="#FDA5A5"/>
<path d="M130.5 85.5C130.5 95.5648 115 101 100.226 101C88 101 69.5 97.482 69.5 85.5C69.5 77.3642 80.5 63 100.226 63C119.952 63 130.5 76.6863 130.5 85.5Z" fill="white" fill-opacity="0.5"/>
<path d="M108 69.9211C108 72.5697 104.189 74 100.556 74C97.5492 74 93 73.0742 93 69.9211C93 67.7801 95.7049 64 100.556 64C105.406 64 108 67.6016 108 69.9211Z" fill="white" fill-opacity="0.5"/>
</g>
</svg>
